<?xml version="1.0" encoding="UTF-8" standalone="no"?>
<!-- Generator: Adobe Illustrator 14.0.0, SVG Export Plug-In . SVG Version: 6.00 Build 43363)  -->
<svg xmlns:dc="http://purl.org/dc/elements/1.1/" xmlns:cc="http://creativecommons.org/ns#" xmlns:rdf="http://www.w3.org/1999/02/22-rdf-syntax-ns#" xmlns:svg="http://www.w3.org/2000/svg" xmlns="http://www.w3.org/2000/svg" xmlns:sodipodi="http://sodipodi.sourceforge.net/DTD/sodipodi-0.dtd" xmlns:inkscape="http://www.inkscape.org/namespaces/inkscape" version="1.1" id="vectorized" x="0px" y="0px" width="287.985px" height="289.485px" viewBox="0 0 287.985 289.485" enable-background="new 0 0 287.985 289.485" xml:space="preserve" sodipodi:version="0.32" inkscape:version="0.46" sodipodi:docname="Interkosmos.svg" inkscape:output_extension="org.inkscape.output.svg.inkscape"><metadata id="metadata38"><rdf:RDF><cc:Work rdf:about=""><dc:format>image/svg+xml</dc:format><dc:type rdf:resource="http://purl.org/dc/dcmitype/StillImage"/></cc:Work></rdf:RDF></metadata><defs id="defs36"><inkscape:perspective sodipodi:type="inkscape:persp3d" inkscape:vp_x="0 : 144.74249 : 1" inkscape:vp_y="0 : 1000 : 0" inkscape:vp_z="287.98499 : 144.74249 : 1" inkscape:persp3d-origin="143.99249 : 96.494995 : 1" id="perspective40"/></defs><sodipodi:namedview inkscape:window-height="669" inkscape:window-width="640" inkscape:pageshadow="2" inkscape:pageopacity="0.0" guidetolerance="10.0" gridtolerance="10.0" objecttolerance="10.0" borderopacity="1.0" bordercolor="#666666" pagecolor="#ffffff" id="base" showgrid="false" inkscape:zoom="1.5959377" inkscape:cx="143.99249" inkscape:cy="144.74249" inkscape:window-x="50" inkscape:window-y="50" inkscape:current-layer="vectorized"/>
<path fill="#FFFF00" d="M269.209,145.056c0,69.42-56.269,125.691-125.688,125.691c-69.414,0-125.69-56.271-125.69-125.691  c0-69.415,56.276-125.688,125.69-125.688C212.94,19.368,269.209,75.641,269.209,145.056z" id="path3"/>
<path fill="#0044C2" d="M143.521,39.606c-59.695,0-108.093,48.395-108.093,108.093c0,14.255,2.804,16.947,7.823,27.806l-0.759,0.119  c5.907,22.308,30.174,46.024,52.3,46.024c22.118,0,43.688-19.477,55.854-62.933c16.862-44.711,23.819-102.897,23.819-102.897h5.814  l-2.634,194.393c42.955-14.294,73.973-54.752,73.973-102.512C251.618,88.001,203.221,39.606,143.521,39.606z" id="path5"/>
<path fill="#FB000B" d="M143.521,8.437C68.07,8.437,6.903,69.604,6.903,145.056c0,75.451,61.167,136.619,136.619,136.619  c75.455,0,136.623-61.168,136.623-136.619C280.145,69.604,218.977,8.437,143.521,8.437z M143.521,19.368  c69.419,0,125.688,56.273,125.688,125.688c0,3.802-0.234,7.546-0.57,11.259H18.398c-0.328-3.713-0.567-7.457-0.567-11.259  C17.831,75.641,74.107,19.368,143.521,19.368z M143.521,270.747c-53.295,0-98.733-33.225-117.016-80.048h234.027  C242.252,237.522,196.817,270.747,143.521,270.747z" id="path7"/>
<g id="g9">
	<path fill="#FFFF00" d="M25.719,185.674h-5.121v-24.669h5.121V185.674z" id="path11"/>
	<path fill="#FFFF00" d="M30.456,161.005h5.404l9.792,17.201v-17.201h4.803v24.669h-5.153L35.259,168.17v17.504h-4.803V161.005z" id="path13"/>
	<path fill="#FFFF00" d="M73.216,161.005v4.368h-7.381v20.301h-5.188v-20.301h-7.414v-4.368H73.216z" id="path15"/>
	<path fill="#FFFF00" d="M94.471,165.373H81.417v5.238h11.983v4.284H81.417v6.343h13.657v4.436H76.379v-24.669h18.092V165.373z" id="path17"/>
	<path fill="#FFFF00" d="M114.898,161.641c0.909,0.391,1.678,0.966,2.309,1.724c0.522,0.625,0.936,1.317,1.241,2.075   c0.304,0.76,0.457,1.624,0.457,2.595c0,1.171-0.296,2.323-0.887,3.456c-0.591,1.132-1.567,1.933-2.929,2.401   c1.138,0.458,1.944,1.107,2.418,1.95c0.474,0.842,0.711,2.128,0.711,3.857v1.656c0,1.128,0.045,1.892,0.136,2.293   c0.136,0.637,0.453,1.104,0.952,1.406v0.619h-5.69c-0.156-0.547-0.268-0.987-0.335-1.322c-0.134-0.691-0.207-1.4-0.217-2.125   l-0.034-2.293c-0.021-1.573-0.293-2.622-0.815-3.146S110.714,176,109.279,176h-5.034v9.674h-5.038v-24.669h11.799   C112.692,161.038,113.99,161.25,114.898,161.641z M104.245,165.289v6.628h5.547c1.102,0,1.928-0.134,2.479-0.402   c0.975-0.468,1.462-1.395,1.462-2.777c0-1.495-0.472-2.5-1.415-3.013c-0.53-0.29-1.324-0.436-2.384-0.436H104.245z" id="path19"/>
	<path fill="#FFFF00" d="M123.926,161.005h5.071v10.164l9.531-10.164h6.661l-10.123,10.146l10.642,14.523h-6.627l-7.601-10.769   l-2.482,2.518v8.251h-5.071V161.005z" id="path21"/>
	<path fill="#FFFF00" d="M167.59,183.481c-1.863,1.919-4.558,2.879-8.083,2.879c-3.525,0-6.22-0.96-8.083-2.879   c-2.499-2.354-3.749-5.746-3.749-10.176c0-4.519,1.25-7.91,3.749-10.176c1.863-1.919,4.558-2.878,8.083-2.878   c3.526,0,6.22,0.959,8.083,2.878c2.487,2.266,3.731,5.657,3.731,10.176C171.321,177.735,170.077,181.127,167.59,183.481z    M164.368,179.732c1.199-1.506,1.799-3.648,1.799-6.427c0-2.767-0.6-4.906-1.799-6.418s-2.82-2.268-4.862-2.268   c-2.042,0-3.671,0.753-4.887,2.259c-1.216,1.507-1.824,3.648-1.824,6.427s0.608,4.921,1.824,6.427   c1.216,1.506,2.845,2.26,4.887,2.26C161.548,181.992,163.169,181.238,164.368,179.732z" id="path23"/>
	<path fill="#FFFF00" d="M178.971,178.059c0.159,1.127,0.473,1.97,0.939,2.527c0.854,1.016,2.318,1.523,4.392,1.523   c1.242,0,2.25-0.134,3.024-0.402c1.47-0.513,2.205-1.467,2.205-2.861c0-0.814-0.36-1.445-1.08-1.892   c-0.72-0.435-1.861-0.82-3.425-1.154l-2.671-0.586c-2.625-0.58-4.428-1.211-5.41-1.892c-1.662-1.138-2.493-2.917-2.493-5.339   c0-2.209,0.812-4.044,2.439-5.506c1.626-1.462,4.016-2.192,7.167-2.192c2.631,0,4.876,0.689,6.734,2.067   c1.857,1.378,2.832,3.378,2.922,5.999h-4.954c-0.091-1.483-0.755-2.538-1.99-3.163c-0.823-0.412-1.847-0.619-3.07-0.619   c-1.361,0-2.448,0.268-3.261,0.804c-0.812,0.535-1.218,1.283-1.218,2.242c0,0.882,0.4,1.54,1.201,1.976   c0.515,0.29,1.606,0.63,3.277,1.021l4.329,1.021c1.897,0.447,3.319,1.044,4.267,1.791c1.471,1.161,2.206,2.84,2.206,5.038   c0,2.254-0.872,4.125-2.614,5.614c-1.742,1.49-4.203,2.234-7.384,2.234c-3.247,0-5.802-0.733-7.662-2.2   c-1.861-1.468-2.791-3.484-2.791-6.051H178.971z" id="path25"/>
	<path fill="#FFFF00" d="M214.481,161.005h7.417v24.669h-4.804v-16.686c0-0.479,0.006-1.152,0.018-2.017   c0.011-0.865,0.017-1.532,0.017-2l-4.675,20.702h-5.01l-4.642-20.702c0,0.468,0.006,1.135,0.017,2   c0.011,0.864,0.017,1.537,0.017,2.017v16.686h-4.803v-24.669h7.501l4.49,19.397L214.481,161.005z" id="path27"/>
	<path fill="#FFFF00" d="M245.664,183.481c-1.864,1.919-4.559,2.879-8.084,2.879s-6.22-0.96-8.083-2.879   c-2.5-2.354-3.749-5.746-3.749-10.176c0-4.519,1.249-7.91,3.749-10.176c1.863-1.919,4.558-2.878,8.083-2.878   s6.22,0.959,8.084,2.878c2.487,2.266,3.731,5.657,3.731,10.176C249.396,177.735,248.151,181.127,245.664,183.481z M242.442,179.732   c1.199-1.506,1.799-3.648,1.799-6.427c0-2.767-0.6-4.906-1.799-6.418c-1.2-1.512-2.82-2.268-4.862-2.268s-3.671,0.753-4.887,2.259   c-1.216,1.507-1.824,3.648-1.824,6.427s0.608,4.921,1.824,6.427s2.845,2.26,4.887,2.26S241.242,181.238,242.442,179.732z" id="path29"/>
	<path fill="#FFFF00" d="M257.044,178.059c0.159,1.127,0.473,1.97,0.939,2.527c0.854,1.016,2.318,1.523,4.392,1.523   c1.242,0,2.25-0.134,3.024-0.402c1.47-0.513,2.205-1.467,2.205-2.861c0-0.814-0.36-1.445-1.08-1.892   c-0.72-0.435-1.861-0.82-3.425-1.154l-2.671-0.586c-2.625-0.58-4.428-1.211-5.41-1.892c-1.662-1.138-2.493-2.917-2.493-5.339   c0-2.209,0.812-4.044,2.439-5.506c1.626-1.462,4.016-2.192,7.167-2.192c2.631,0,4.876,0.689,6.734,2.067   c1.857,1.378,2.832,3.378,2.922,5.999h-4.954c-0.091-1.483-0.755-2.538-1.99-3.163c-0.823-0.412-1.847-0.619-3.07-0.619   c-1.361,0-2.448,0.268-3.261,0.804c-0.812,0.535-1.218,1.283-1.218,2.242c0,0.882,0.4,1.54,1.201,1.976   c0.515,0.29,1.606,0.63,3.277,1.021l4.329,1.021c1.897,0.447,3.319,1.044,4.267,1.791c1.471,1.161,2.206,2.84,2.206,5.038   c0,2.254-0.872,4.125-2.614,5.614c-1.742,1.49-4.203,2.234-7.384,2.234c-3.247,0-5.802-0.733-7.662-2.2   c-1.861-1.468-2.791-3.484-2.791-6.051H257.044z" id="path31"/>
</g>
<polygon points="170.231,14.031 163.357,30.429 150.659,30.429 160.444,42.594 150.659,76.977 170.231,54.761 193.507,76.977 181.34,46.297 193.507,29.707 176.579,30.429 170.231,14.031" id="polygon33" transform="translate(6.26591, 9.39886)" style="fill: rgb(251, 0, 11);"/>
</svg>